<svg width="64" height="64" viewBox="0 0 64 64" xmlns="http://www.w3.org/2000/svg" role="img" aria-label="GitHub">
  <path d="M32 9c-12.7 0-23 10.3-23 23 0 10.1 6.6 18.7 15.8 21.8.6.1.9-.2.9-.7v-3.8c-6.4 1.4-7.7-2.8-7.7-2.8-1-2.6-2.5-3.3-2.5-3.3-2.1-1.4.2-1.4.2-1.4 2.3.2 3.5 2.3 3.5 2.3 2 3.5 5.3 2.5 6.6 1.9.3-1.4.8-2.4 1.5-3-5.1-.6-10.4-2.5-10.4-11.4 0-2.5.9-4.7 2.3-6.3-.2-.6-1-2.9.2-6.1 0 0 2-.6 6.3 2.4 1.8-.5 3.8-.7 5.7-.7s3.9.2 5.7.7c4.4-3.1 6.3-2.4 6.3-2.4 1.2 3.2.4 5.5.2 6.1 1.5 1.7 2.3 3.8 2.3 6.3 0 8.8-5.3 10.8-10.5 11.4.8.7 1.6 2.1 1.6 4.1v6.1c0 .5.3.9.9.7C48.4 50.7 55 42.1 55 32c0-12.7-10.3-23-23-23z" fill="#a7f3d0"/>
</svg>
